PathFileType	4	(X/Y/Z)	C:/Users/opensim2020/Desktop/walking_exp_matlab/subject03_walking11_straight_02.trc	
DataRate	CameraRate	NumFrames	NumMarkers	Units	OrigDataRate	OrigDataStartFrame	OrigNumFrames	
100.00	100.00	4	46	mm	100.00	2022	357	
Frame#	Time	LFHD			RFHD			LBHD			RBHD			C7			T10			CLAV			STRN			RBAK			LSHO			LUPA			LELB			LFRM			LWRA			LWRB			LFIN			RSHO			RUPA			RELB			RFRM			RWRA			RWRB			RFIN			LASI			RASI			LPSI			RPSI			LTHI			LKNE			LTIB			LANK			LHEE			LTOE			RTHI			RKNE			RTIB			RANK			RHEE			RTOE			*39			*40			*41			*42			*43			*44			*45			
		X1	Y1	Z1	X2	Y2	Z2	X3	Y3	Z3	X4	Y4	Z4	X5	Y5	Z5	X6	Y6	Z6	X7	Y7	Z7	X8	Y8	Z8	X9	Y9	Z9	X10	Y10	Z10	X11	Y11	Z11	X12	Y12	Z12	X13	Y13	Z13	X14	Y14	Z14	X15	Y15	Z15	X16	Y16	Z16	X17	Y17	Z17	X18	Y18	Z18	X19	Y19	Z19	X20	Y20	Z20	X21	Y21	Z21	X22	Y22	Z22	X23	Y23	Z23	X24	Y24	Z24	X25	Y25	Z25	X26	Y26	Z26	X27	Y27	Z27	X28	Y28	Z28	X29	Y29	Z29	X30	Y30	Z30	X31	Y31	Z31	X32	Y32	Z32	X33	Y33	Z33	X34	Y34	Z34	X35	Y35	Z35	X36	Y36	Z36	X37	Y37	Z37	X38	Y38	Z38	X39	Y39	Z39	X40	Y40	Z40	X41	Y41	Z41	X42	Y42	Z42	X43	Y43	Z43	X44	Y44	Z44	X45	Y45	Z45	X46	Y46	Z46	

224	2.230	-988.35852	-483.18051	1617.25244	-1120.23730	-471.21091	1610.72559	-978.20844	-352.23471	1586.27124	-1108.80359	-344.95682	1578.95105	-1027.90100	-305.96057	1416.89978	-1023.98749	-276.29358	1100.90466	-1025.67126	-426.40891	1339.91614	-1012.81512	-472.05939	1176.66821	-1120.24231	-256.15698	1235.04224	-872.24963	-383.01477	1381.68286	-799.28412	-394.24759	1186.96460	-788.72919	-413.06403	1064.55505	-791.71466	-453.24442	940.64252	-824.02594	-483.41876	825.81372	-771.19733	-464.24261	828.05933	-784.53662	-485.29288	745.51288	-1186.50439	-382.29535	1357.63599	-1254.92053	-389.75739	1133.83740	-1266.00696	-410.49213	1022.64313	-1264.25098	-436.21170	888.17834	-1226.36560	-472.73376	796.56122	-1270.30310	-442.03027	787.83008	-1257.52173	-469.36722	718.45728	-896.19397	-434.86057	936.22662	-1133.00146	-454.67233	944.41864	-958.45270	-277.75638	957.45886	-1106.08411	-290.80688	973.00012	-845.15045	-372.80240	630.91669	-862.20020	-374.00061	450.94547	-877.58765	-225.66208	316.58298	-932.07440	-89.78676	163.83060	-977.54120	-42.98478	166.87225	-947.82111	-168.06308	37.07897	-1176.94348	-415.15747	650.74792	-1139.30701	-441.50357	471.51849	-1142.03088	-410.08401	283.80460	-1090.72205	-403.12625	67.50684	-1040.33704	-359.57086	36.04013	-1070.22034	-546.52472	32.07630																					 
225	2.240	-988.80426	-490.01620	1617.18079	-1120.73315	-478.43637	1610.51172	-979.03198	-359.05881	1585.91748	-1109.61621	-352.16278	1578.49988	-1028.85205	-312.95624	1416.68481	-1024.99658	-282.72458	1100.81042	-1026.07263	-433.31323	1339.62061	-1013.24548	-478.67130	1176.28772	-1121.82385	-263.38699	1235.09399	-872.79047	-388.79556	1381.01709	-799.61487	-398.48334	1185.94519	-788.96863	-416.74994	1063.50085	-791.72583	-456.33615	939.40991	-823.80859	-486.06607	824.38452	-771.02496	-466.67630	826.81628	-784.21216	-487.06677	744.08228	-1187.16138	-390.35156	1357.27087	-1255.87024	-399.38980	1133.68213	-1267.00732	-421.01474	1022.66595	-1264.97266	-447.84158	888.36694	-1226.54541	-484.57718	796.95160	-1270.88940	-454.48199	788.11951	-1257.94934	-482.40552	719.06171	-896.95709	-440.77267	935.52350	-1133.88416	-461.35809	944.41595	-959.44379	-283.90698	956.46051	-1107.09448	-297.25571	972.94238	-844.72064	-382.65378	630.45367	-860.93298	-388.65656	450.51303	-877.43628	-238.98395	318.32693	-932.68182	-101.63470	167.70351	-979.43958	-55.28606	170.55371	-943.51147	-178.17944	40.12162	-1177.71460	-420.90823	650.66644	-1139.85779	-445.88440	471.25266	-1142.31128	-412.77057	283.68396	-1090.59082	-403.30405	67.57195	-1040.29102	-359.61548	36.20814	-1070.13049	-546.63733	31.98600				-1041.29810	-409.69751	1684.12573															 
226	2.250	-989.17188	-496.80905	1617.07483	-1121.12329	-485.62958	1610.37952	-979.72668	-365.81061	1585.67456	-1110.39233	-359.40436	1578.14307	-1030.02454	-319.80856	1416.62109	-1025.83350	-289.13602	1100.68726	-1026.42297	-440.11938	1339.37195	-1013.60974	-485.11661	1175.87122	-1123.20325	-270.45218	1235.15991	-873.18298	-394.76190	1380.31042	-799.87384	-402.42834	1185.02026	-789.05597	-420.39331	1062.52551	-791.65710	-459.34174	938.19995	-823.64502	-488.26236	822.92407	-770.86462	-468.94699	825.57434	-783.84821	-488.99170	742.80255	-1187.71643	-398.31760	1357.04163	-1256.73340	-409.13007	1133.55981	-1267.79724	-431.71387	1022.68146	-1265.56433	-459.52341	888.59534	-1226.76086	-496.38309	797.46887	-1271.58618	-467.03763	788.47858	-1258.42175	-495.43442	719.69202	-897.54871	-446.69684	934.90216	-1134.71863	-467.93781	944.29706	-960.51227	-289.86456	955.51855	-1108.06555	-303.67188	972.69910	-844.45801	-392.49744	630.37701	-859.66858	-403.00394	450.49707	-877.60889	-252.58740	320.19910	-933.40338	-114.11286	171.17766	-980.97491	-68.37309	173.21707	-938.75397	-190.85452	43.36722	-1178.46509	-426.70395	650.54089	-1140.21411	-450.27637	470.99002	-1142.46912	-415.60538	283.55069	-1090.44409	-403.62503	67.60161	-1040.25110	-359.73398	36.35900	-1070.05518	-546.80469	31.92700																					 
227	2.260	-989.44446	-503.59042	1617.00513	-1121.38965	-492.83243	1610.19971	-980.77985	-372.43579	1585.54980	-1110.99683	-366.59277	1577.85413	-1030.79688	-326.69421	1416.61792	-1026.84583	-295.24799	1100.70044	-1026.73877	-446.81818	1339.13928	-1013.94055	-491.41721	1175.54700	-1124.44446	-277.35245	1235.31116	-873.53394	-400.58258	1379.73303	-800.04041	-406.06061	1184.11926	-789.03510	-423.73795	1061.54297	-791.56653	-462.15427	937.05646	-823.36035	-490.89969	821.78638	-770.76001	-471.17441	824.47137	-783.41608	-491.12057	741.79175	-1188.23853	-406.15851	1356.84851	-1257.43713	-418.85223	1133.51489	-1268.58411	-442.42642	1022.81342	-1266.10718	-471.28613	888.90704	-1226.98438	-508.26468	798.17657	-1272.15967	-479.54333	788.86237	-1258.83557	-508.48901	720.46271	-898.19897	-452.56702	934.55493	-1135.73267	-474.45343	944.03613	-961.55798	-295.74509	954.71857	-1109.14258	-310.04236	972.36877	-844.32544	-402.18344	630.72546	-858.69385	-417.40997	450.99719	-877.63196	-266.44238	322.04153	-933.69415	-127.64921	173.48329	-981.90277	-82.14719	174.85849	-935.36932	-204.33713	45.94830	-1179.03760	-432.42688	650.33551	-1140.50146	-454.74091	470.71069	-1142.51135	-418.45218	283.41678	-1090.31702	-403.86569	67.74400	-1040.20813	-359.84134	36.58728	-1069.96509	-546.98419	31.82878																					 
